<svg width="15" height="14" viewBox="0 0 15 14" fill="none" xmlns="http://www.w3.org/2000/svg">
<g clip-path="url(#clip0_122_20)">
<path d="M2.5 12.6875C2.5 13.0356 2.63828 13.3694 2.88442 13.6156C3.13056 13.8617 3.4644 14 3.8125 14H11.6875C12.0356 14 12.3694 13.8617 12.6156 13.6156C12.8617 13.3694 13 13.0356 13 12.6875V3.5H2.5V12.6875ZM9.9375 5.6875C9.9375 5.57147 9.98359 5.46019 10.0656 5.37815C10.1477 5.2961 10.259 5.25 10.375 5.25C10.491 5.25 10.6023 5.2961 10.6844 5.37815C10.7664 5.46019 10.8125 5.57147 10.8125 5.6875V11.8125C10.8125 11.9285 10.7664 12.0398 10.6844 12.1219C10.6023 12.2039 10.491 12.25 10.375 12.25C10.259 12.25 10.1477 12.2039 10.0656 12.1219C9.98359 12.0398 9.9375 11.9285 9.9375 11.8125V5.6875ZM7.3125 5.6875C7.3125 5.57147 7.35859 5.46019 7.44064 5.37815C7.52269 5.2961 7.63397 5.25 7.75 5.25C7.86603 5.25 7.97731 5.2961 8.05936 5.37815C8.14141 5.46019 8.1875 5.57147 8.1875 5.6875V11.8125C8.1875 11.9285 8.14141 12.0398 8.05936 12.1219C7.97731 12.2039 7.86603 12.25 7.75 12.25C7.63397 12.25 7.52269 12.2039 7.44064 12.1219C7.35859 12.0398 7.3125 11.9285 7.3125 11.8125V5.6875ZM4.6875 5.6875C4.6875 5.57147 4.73359 5.46019 4.81564 5.37815C4.89769 5.2961 5.00897 5.25 5.125 5.25C5.24103 5.25 5.35231 5.2961 5.43436 5.37815C5.51641 5.46019 5.5625 5.57147 5.5625 5.6875V11.8125C5.5625 11.9285 5.51641 12.0398 5.43436 12.1219C5.35231 12.2039 5.24103 12.25 5.125 12.25C5.00897 12.25 4.89769 12.2039 4.81564 12.1219C4.73359 12.0398 4.6875 11.9285 4.6875 11.8125V5.6875ZM13.4375 0.875005H10.1562L9.89922 0.363677C9.84477 0.25436 9.7609 0.162406 9.65704 0.0981575C9.55318 0.0339095 9.43345 -8.27959e-05 9.31133 4.7941e-06H6.18594C6.06409 -0.000463619 5.94457 0.0334019 5.84108 0.0977214C5.73759 0.162041 5.65431 0.254213 5.60078 0.363677L5.34375 0.875005H2.0625C1.94647 0.875005 1.83519 0.921098 1.75314 1.00315C1.67109 1.08519 1.625 1.19647 1.625 1.3125V2.1875C1.625 2.30354 1.67109 2.41482 1.75314 2.49686C1.83519 2.57891 1.94647 2.625 2.0625 2.625H13.4375C13.5535 2.625 13.6648 2.57891 13.7469 2.49686C13.8289 2.41482 13.875 2.30354 13.875 2.1875V1.3125C13.875 1.19647 13.8289 1.08519 13.7469 1.00315C13.6648 0.921098 13.5535 0.875005 13.4375 0.875005Z" fill="#DC2626"/>
</g>
<defs>
<clipPath id="clip0_122_20">
<rect width="14" height="14" fill="white" transform="translate(0.75)"/>
</clipPath>
</defs>
</svg>
